# xmcd
#
# Track frame offsets: 
#        150
#        14518
#        27575
#        39843
#        51610
#        64363
#        77315
#        89285
#        102188
#        120600
#        134970
#        168358
#        183658
#        202548
#        221275
#        238793
#        260670
#        283915
#        306650
#        326327
#        343145
#
# Disc length: 4798 seconds
#
# Revision: 12
# Processed by: cddbd v1.5.2PL0 Copyright (c) Steve Scherf et al.
# Submitted via: ExactAudioCopy v0.99pb5
#
DISCID=3e12bc15
DTITLE=Stevie Wonder - Definitive Collection
DYEAR=2002
DGENRE=R&B
TTITLE0=Fingertips (Part 2)
TTITLE1=Uptight (Everything's Alright)
TTITLE2=Hey Love
TTITLE3=I Was Made To Love Her
TTITLE4=For Once In My Life
TTITLE5=My Cherie Amour
TTITLE6=Signed, Sealed, Delivered I'm Yours
TTITLE7=You Are The Sunshine Of My Life
TTITLE8=Superstition
TTITLE9=Higher Ground
TTITLE10=Living For The City
TTITLE11=You Haven't Done Nothin'
TTITLE12=Boogie On Reggae Woman
TTITLE13=I Wish
TTITLE14=Sir Duke
TTITLE15=Masterblaster (Jammin')
TTITLE16=That Girl
TTITLE17=Do I Do
TTITLE18=I Just Called To Say I Love You
TTITLE19=Overjoyed
TTITLE20=Part-Time Lover
EXTD=YEAR: 2002 UTV Records 066 164-2
EXTT0=\nYEAR: 1963
EXTT1=\nYEAR: 1965
EXTT2=\nYEAR: 1966
EXTT3=\nYEAR: 1967
EXTT4=\nYEAR: 1968
EXTT5=\nYEAR: 1969
EXTT6=\nYEAR: 1970
EXTT7=\nYEAR: 1972
EXTT8=\nYEAR: 1972
EXTT9=\nYEAR: 1973
EXTT10=\nYEAR: 1973
EXTT11=\nYEAR: 1974
EXTT12=\nYEAR: 1974
EXTT13=\nYEAR: 1976
EXTT14=\nYEAR: 1976
EXTT15=\nYEAR: 1980
EXTT16=\nYEAR: 1981
EXTT17=\nYEAR: 1982
EXTT18=\nYEAR: 1983
EXTT19=\nYEAR: 1985
EXTT20=\nYEAR: 1985
PLAYORDER=
